<svg xmlns="http://www.w3.org/2000/svg" xmlns:xlink="http://www.w3.org/1999/xlink" viewBox="0 0 430 430" width="430" height="430" preserveAspectRatio="xMidYMid meet" style="width: 100%; height: 100%; transform: translate3d(0px, 0px, 0px); content-visibility: visible;"><defs><clipPath id="__lottie_element_16"><rect width="430" height="430" x="0" y="0"/></clipPath><clipPath id="__lottie_element_18"><path d="M0,0 L430,0 L430,430 L0,430z"/></clipPath></defs><g clip-path="url(#__lottie_element_16)"><g clip-path="url(#__lottie_element_18)" transform="matrix(1,0,0,1,0,0)" opacity="1" style="display: block;"><g transform="matrix(1,0,0,1,-35,-35)" opacity="1" style="display: block;"><path class="primary" fill="rgb(0,0,0)" fill-opacity="1" d=" M179.23,125.62 C170.69,111.97 155.51,102.89 138.23,102.89 C111.53,102.89 89.88,124.53 89.88,151.23 C89.88,172.39 103.48,190.37 122.4,196.92 M320.77,125.62 C329.31,111.97 344.49,102.89 361.77,102.89 C388.47,102.89 410.12,124.53 410.12,151.23 C410.12,172.39 396.52,190.37 377.6,196.92"/><g opacity="1" transform="matrix(1,0,0,1,134.55599975585938,149.90499877929688)"/></g><g transform="matrix(1,0,0,1,-35,-35)" opacity="1" style="display: block;"><path class="secondary" fill="rgb(255,65,1)" fill-opacity="1" d=" M104.28,255.39 C94.1,296.08 100.19,333.94 126.04,360.87 C149.78,385.6 190.2,401.11 250,401.11 C307.45,401.11 347,386.8 371.08,363.75 C399.35,336.68 406.26,297.55 395.72,255.39 C374.9,172.12 347.15,109.66 250,109.66 C152.85,109.66 125.1,172.12 104.28,255.39z"/><g opacity="1" transform="matrix(1,0,0,1,250,346.48699951171875)"/></g><g transform="matrix(1,0,0,1,148.5229949951172,220.75999450683594)" opacity="0.5" style="mix-blend-mode: multiply; display: block;"><g opacity="1" transform="matrix(1,0,0,1,0,0)" style="mix-blend-mode: multiply;"><path class="secondary" fill="rgb(255,65,1)" fill-opacity="1" d=" M83.91600036621094,145.26499938964844 C78.2959976196289,145.56500244140625 72.48600006103516,145.72500610351562 66.47599792480469,145.72500610351562 C-58.42399978637695,145.72500610351562 -98.76399993896484,78.07499694824219 -79.24400329589844,0.004999999888241291 C-58.42399978637695,-83.26499938964844 -30.673999786376953,-145.72500610351562 66.47599792480469,-145.72500610351562 C72.5459976196289,-145.72500610351562 78.34600067138672,-145.48500061035156 83.89600372314453,-145.0050048828125 C0.7459999918937683,-137.8249969482422 -24.854000091552734,-78.05500030517578 -44.374000549316406,0.004999999888241291 C-62.95399856567383,74.32499694824219 -27.29400062561035,139.19500732421875 83.91600036621094,145.26499938964844z"/></g></g><g transform="matrix(1,0,0,1,-35,-35)" opacity="1" style="display: block;"><g opacity="1" transform="matrix(1,0,0,1,250,346.48699951171875)"><path class="primary" fill="rgb(0,0,0)" fill-opacity="1" d=" M-79.68599700927734,-106.21700286865234 C-82.23999786376953,-95.7249984741211 -97.61900329589844,-85.5260009765625 -100.59200286865234,-76.4729995727539 C-105.01599884033203,-62.99700164794922 -95.68000030517578,-52.15599822998047 -86.44499969482422,-47.44200134277344 C-71.00499725341797,-39.56100082397461 -48.58599853515625,-52.57400131225586 -36.369998931884766,-76.50800323486328 C-24.15399932861328,-100.44200134277344 -26.766000747680664,-126.23200225830078 -42.20600128173828,-134.11300659179688 C-57.645999908447266,-141.99400329589844 -74.01699829101562,-129.50100708007812 -79.68599700927734,-106.21700286865234z M79.68599700927734,-106.21700286865234 C82.23999786376953,-95.7249984741211 97.61900329589844,-85.5260009765625 100.59200286865234,-76.4729995727539 C105.01599884033203,-62.99700164794922 95.68000030517578,-52.15599822998047 86.44499969482422,-47.44200134277344 C71.00499725341797,-39.56100082397461 48.58599853515625,-52.57400131225586 36.369998931884766,-76.50800323486328 C24.15399932861328,-100.44200134277344 26.766000747680664,-126.23200225830078 42.20600128173828,-134.11300659179688 C57.645999908447266,-141.99400329589844 74.01699829101562,-129.50100708007812 79.68599700927734,-106.21700286865234z"/></g><g opacity="1" transform="matrix(1,0,0,1,250,346.48699951171875)"><path stroke-linecap="round" stroke-linejoin="round" fill-opacity="0" class="primary" stroke="rgb(0,0,0)" stroke-opacity="1" stroke-width="7" d=" M0,-8.446999549865723 C0,-8.446999549865723 0,10.696999549865723 0,10.696999549865723 M-31.788000106811523,10.696999549865723 C-29.04199981689453,13.770999908447266 -24.672000885009766,16.8439998626709 -15.894000053405762,16.8439998626709 C-7.116000175476074,16.8439998626709 -4.308000087738037,14.371000289916992 0,10.696999549865723 M31.788000106811523,10.696999549865723 C29.04199981689453,13.770999908447266 24.672000885009766,16.8439998626709 15.894000053405762,16.8439998626709 C7.116000175476074,16.8439998626709 4.308000087738037,14.371000289916992 0,10.696999549865723"/></g></g><g transform="matrix(1,0,0,1,-35,-35)" opacity="1" style="display: block;"><path class="primary" fill="rgb(0,0,0)" fill-opacity="1" d=" M281.76,314.53 C286.03,322.28 260.17,335.85 250,335.85 C239.83,335.85 213.97,322.28 218.24,314.53 C224.91,302.44 275.09,302.44 281.76,314.53z M194.59,241.28 C194.59,241.28 194.59,241.28 194.59,241.28 M305.41,241.28 C305.41,241.28 305.41,241.28 305.41,241.28"/><g opacity="1" transform="matrix(1,0,0,1,250,320.6549987792969)"/><g opacity="1" transform="matrix(1,0,0,1,305.40899658203125,241.28199768066406)"><path stroke-linecap="round" stroke-linejoin="round" fill-opacity="0" class="tertiary" stroke="rgb(255,255,255)" stroke-opacity="1" stroke-width="16" d=" M-110.81900024414062,0 C-110.81900024414062,0 -110.81900024414062,0 -110.81900024414062,0 M0,0 C0,0 0,0 0,0"/></g></g><g transform="matrix(1,0,0,1,215.2270050048828,312.738037109375)" opacity="1" style="display: none;"><g opacity="1" transform="matrix(1,0,0,1,0,0)"><path class="primary" fill="rgb(0,0,0)" fill-opacity="1" d=" M29.264999389648438,-3.746999979019165 C29.264999389648438,-3.746999979019165 29.48699951171875,-3.007999897003174 29.48699951171875,-3.007999897003174 C29.48699951171875,-0.37599998712539673 15.505000114440918,2.006999969482422 -0.2070000022649765,2.006999969482422 C-0.2070000022649765,2.006999969482422 -0.2070000022649765,2.006999969482422 -0.2070000022649765,2.006999969482422 C-20.716999053955078,3.256999969482422 -29.660999298095703,-0.8759999871253967 -29.660999298095703,-3.507999897003174 C-29.660999298095703,-3.507999897003174 -29.382999420166016,-2.746999979019165 -29.382999420166016,-2.746999979019165"/></g></g><g transform="matrix(1,0,0,1,-35.125,-32.375)" opacity="0.5" style="mix-blend-mode: multiply; display: block;"><g opacity="0.5" transform="matrix(1,0,0,1,117.53500366210938,147.90499877929688)" style="mix-blend-mode: multiply;"><path class="primary" fill="rgb(0,0,0)" fill-opacity="1" d=" M7.295000076293945,41.20500183105469 C6.465000152587891,43.1150016784668 5.65500020980835,45.05500030517578 4.864999771118164,47.01499938964844 C-14.055000305175781,40.46500015258789 -27.655000686645508,22.485000610351562 -27.655000686645508,1.3250000476837158 C-27.655000686645508,-25.375 -6.005000114440918,-47.01499938964844 20.704999923706055,-47.01499938964844 C23.065000534057617,-47.01499938964844 25.385000228881836,-46.845001220703125 27.655000686645508,-46.505001068115234 C4.255000114440918,-43.1349983215332 -13.725000381469727,-23.0049991607666 -13.725000381469727,1.3250000476837158 C-13.725000381469727,17.885000228881836 -5.394999980926514,32.494998931884766 7.295000076293945,41.20500183105469z"/></g><g opacity="0.5" transform="matrix(1,0,0,1,237.21400451660156,318.6549987792969)" style="mix-blend-mode: multiply;"><path class="primary" fill="rgb(0,0,0)" fill-opacity="1" d=" M19.44099998474121,14.015000343322754 C16.900999069213867,14.765000343322754 14.60099983215332,15.194999694824219 12.791000366210938,15.194999694824219 C2.621000051498413,15.194999694824219 -23.23900032043457,1.625 -18.9689998626709,-6.125 C-15.109000205993652,-13.114999771118164 3.2809998989105225,-16.065000534057617 19.410999298095703,-14.975000381469727 C7.660999774932861,-14.164999961853027 -2.86899995803833,-11.225000381469727 -5.669000148773193,-6.125 C-9.178999900817871,0.24500000476837158 7.681000232696533,10.555000305175781 19.44099998474121,14.015000343322754z"/></g></g></g></g></svg>